<svg xmlns="http://www.w3.org/2000/svg" width="40.329" height="31.035" viewBox="0 0 40.329 31.035">
    <defs>
        <style>
            .cls-1{fill:#b3b3b5;stroke:#b3b3b5;stroke-width:.5px}
        </style>
    </defs>
    <g id="Tracking" transform="translate(0.25 0.25)">
        <path id="Path_923" d="M41.634 29.824l-8.241-8.241A1.977 1.977 0 0 0 31.985 21h-11.4v1.328h3.319v9.957h1.328v-9.957h6.752a.664.664 0 0 1 .47.194l1.133 1.133h-3.043a1.328 1.328 0 0 0-1.328 1.328v5.974a1.328 1.328 0 0 0 1.328 1.328H40.5V37.6a.664.664 0 0 1-.664.664h-1.38a4.641 4.641 0 0 0-9.187 0h-9.4a4.641 4.641 0 0 0-9.187 0H9.3a.664.664 0 0 1-.664-.664v-5.979H7.31V37.6a1.991 1.991 0 0 0 1.99 1.987h1.381a4.632 4.632 0 0 0 1.348 2.655H2v1.328h31.863a4.651 4.651 0 0 0 4.594-3.983h1.381a1.991 1.991 0 0 0 1.991-1.987v-7.3a.664.664 0 0 0-.194-.469zm-29.677 9.1a3.319 3.319 0 1 1 3.319 3.319 3.319 3.319 0 0 1-3.319-3.32zm6.564 3.319a4.632 4.632 0 0 0 1.348-2.655h9.4a4.632 4.632 0 0 0 1.348 2.655zm15.341 0a3.319 3.319 0 1 1 3.319-3.319 3.319 3.319 0 0 1-3.318 3.318zm-3.318-11.286v-5.974h4.372l5.584 5.585v.389z" class="cls-1" transform="translate(-2 -13.034)"/>
        <path id="Rectangle_70" d="M0 0H1.328V1.328H0z" class="cls-1" transform="translate(12.612 25.225)"/>
        <path id="Rectangle_71" d="M0 0H1.328V1.328H0z" class="cls-1" transform="translate(31.199 25.225)"/>
        <path id="Rectangle_72" d="M0 0H3.319V1.328H0z" class="cls-1" transform="translate(0 23.233)"/>
        <path id="Rectangle_73" d="M0 0H1.991V1.328H0z" class="cls-1" transform="translate(1.328 20.578)"/>
        <path id="Rectangle_74" d="M0 0H1.328V1.328H0z" class="cls-1" transform="translate(1.991 17.923)"/>
        <path id="Path_924" d="M10.63 26.259A8.63 8.63 0 1 0 2 17.63a8.63 8.63 0 0 0 8.63 8.63zm0-15.931a7.3 7.3 0 1 1-7.3 7.3 7.3 7.3 0 0 1 7.3-7.3z" class="cls-1" transform="translate(-2 -9)"/>
        <path id="Path_925" d="M12.647 24.949a.664.664 0 0 0 .469-.194c.428-.428 4.177-4.26 4.177-7.108a4.647 4.647 0 1 0-9.293 0c0 2.848 3.75 6.68 4.177 7.107a.664.664 0 0 0 .47.195zm0-10.621a3.323 3.323 0 0 1 3.319 3.319c0 1.7-2.089 4.335-3.319 5.676-1.23-1.341-3.319-3.973-3.319-5.676a3.323 3.323 0 0 1 3.319-3.319z" class="cls-1" transform="translate(-4.017 -10.345)"/>
        <path id="Path_926" d="M15.983 18.991a1.991 1.991 0 1 0-1.991 1.991 1.991 1.991 0 0 0 1.991-1.991zm-2.655 0a.664.664 0 1 1 .664.664.664.664 0 0 1-.664-.664z" class="cls-1" transform="translate(-5.362 -11.69)"/>
        <path id="Rectangle_75" d="M0 0H2.655V1.328H0z" class="cls-1" transform="translate(25.225 20.578)"/>
    </g>
</svg>
